<svg width="154" height="145" viewBox="0 0 154 145" fill="none" xmlns="http://www.w3.org/2000/svg">
<path d="M115.947 139.821C109.835 139.821 104.861 135.282 104.861 129.7C104.861 124.117 109.835 119.578 115.947 119.578C122.059 119.578 127.032 124.117 127.032 129.701C127.032 135.282 122.058 139.821 115.947 139.821ZM91.6371 95.8036H62.1642L47.4255 72.5L62.1642 49.1964H91.6371L106.374 72.5L91.6371 95.8036ZM41.6968 25.4219C35.5858 25.4219 30.612 20.8826 30.612 15.2994C30.612 9.71791 35.5858 5.17857 41.6968 5.17857C47.8114 5.17857 52.786 9.71791 52.786 15.3002C52.786 20.8826 47.8114 25.4219 41.6968 25.4219ZM115.947 114.399C113.842 114.399 111.835 114.77 109.977 115.42L97.9334 96.8652L97.298 97.2099L112.104 73.7946C112.352 73.4002 112.482 72.954 112.482 72.5C112.482 72.046 112.352 71.5998 112.104 71.2054L95.7295 45.3125C95.4818 44.9197 95.1244 44.5932 94.6933 44.3659C94.2622 44.1386 93.7727 44.0185 93.2742 44.0179H63.4769L63.5928 43.9555L52.5508 26.9391C56.1575 24.1321 58.4577 19.9585 58.4577 15.3002C58.4577 6.86403 50.9395 0 41.6968 0C32.4577 0 24.9396 6.86403 24.9396 15.3002C24.9396 23.7365 32.4577 30.6005 41.6968 30.6005C43.8045 30.6005 45.8124 30.2299 47.6697 29.5802L57.9782 45.4598L41.6941 71.2054C41.4464 71.5998 41.3162 72.046 41.3162 72.5C41.3162 72.954 41.4464 73.4002 41.6941 73.7946L58.0718 99.6875C58.5797 100.49 59.5155 100.982 60.5279 100.982H93.2742C93.5095 100.982 93.7386 100.948 93.9605 100.9L105.097 118.062C101.487 120.868 99.1891 125.041 99.1891 129.7C99.1891 138.136 106.705 145 115.947 145C125.19 145 132.705 138.136 132.705 129.7C132.705 121.264 125.189 114.399 115.947 114.399ZM132.852 52.0543C126.741 52.0543 121.769 47.5158 121.769 41.9335C121.769 36.3503 126.741 31.8118 132.852 31.8118C138.963 31.8118 143.938 36.3511 143.938 41.9335C143.938 47.5166 138.963 52.0543 132.852 52.0543ZM153.619 71.2062L142.854 54.1816C146.946 51.3876 149.609 46.9446 149.609 41.9343C149.609 33.4981 142.094 26.634 132.852 26.634C130.501 26.634 128.26 27.0823 126.227 27.8874L117.45 14.0064C117.202 13.6135 116.845 13.2869 116.413 13.0596C115.982 12.8323 115.492 12.7123 114.994 12.7118H79.8376V17.8903H113.357L121.476 30.7332C118.176 33.5296 116.097 37.509 116.097 41.9343C116.097 50.3705 123.613 57.2345 132.852 57.2345C134.573 57.2345 136.238 56.9934 137.803 56.5508L147.891 72.5L133.728 94.8925L138.64 97.4817L153.619 73.7946C153.869 73.4008 154 72.9543 154 72.5C154 72.0456 153.869 71.6 153.619 71.2062ZM23.4682 111.978C17.3545 111.978 12.3798 107.438 12.3798 101.858C12.3798 96.2745 17.3536 91.7351 23.4682 91.7351C29.5791 91.7351 34.5538 96.2745 34.5538 101.858C34.5538 107.438 29.58 111.978 23.4682 111.978ZM32.7295 114.597C37.2408 111.852 40.2246 107.168 40.2246 101.858C40.2246 93.4214 32.7064 86.5566 23.4673 86.5566C20.7901 86.5566 18.2689 87.1473 16.0231 88.17L6.11202 72.5L22.5351 46.5319L17.6201 43.9426L0.380701 71.2054C0.131269 71.5992 0 72.0456 0 72.5C0 72.9543 0.131269 73.4008 0.380701 73.7946L11.4209 91.2464C8.50846 94.0016 6.70734 97.7374 6.70734 101.858C6.70734 110.293 14.2255 117.157 23.4682 117.157C24.8602 117.157 26.2077 116.984 27.5035 116.689L36.5492 130.994C37.0572 131.795 37.993 132.289 39.0063 132.289H74.1651V127.11H40.6425L32.7295 114.597Z" fill="url(#paint0_linear_3_6)"/>
<defs>
<linearGradient id="paint0_linear_3_6" x1="77" y1="-77.9375" x2="77" y2="242.875" gradientUnits="userSpaceOnUse">
<stop stop-color="#00EB34"/>
<stop offset="1" stop-color="#FF9900"/>
</linearGradient>
</defs>
</svg>
